# xmcd
#
# Track frame offsets: 
#        150
#        8292
#        23427
#        40482
#        58682
#        77115
#        99427
#        114377
#        131270
#        152337
#        173755
#        177417
#        201257
#        221900
#        229585
#        259710
#
# Disc length: 3926 seconds
#
# Revision: 1
# Processed by: cddbd v1.5.2PL0 Copyright (c) Steve Scherf et al.
# Submitted via: ExactAudioCopyFreeDBPlugin 1.0
#
DISCID=c20f5410
DTITLE=Jaheim - Still Ghetto
DYEAR=2002
DGENRE=R&B
TTITLE0=Intro (feat. Duganz)
TTITLE1=Diamond in Da Ruff
TTITLE2=Fabulous (feat. tha Rayne)
TTITLE3=Let's Talk About It
TTITLE4=Put That Woman First
TTITLE5=Beauty and Thug (feat. Mary J. Blige)
TTITLE6=Me and My Bitch
TTITLE7=Backtight
TTITLE8=Special Day
TTITLE9=Long as I Live
TTITLE10=Interlude
TTITLE11=Everywhere I Am
TTITLE12=Tight Jeans
TTITLE13=Whut You Want
TTITLE14=Still Ghetto (feat. Taquane)
TTITLE15=DATA
EXTD=
EXTT0=
EXTT1=
EXTT2=
EXTT3=
EXTT4=
EXTT5=
EXTT6=
EXTT7=
EXTT8=
EXTT9=
EXTT10=
EXTT11=
EXTT12=
EXTT13=
EXTT14=
EXTT15=
PLAYORDER=
